<mxfile host="app.diagrams.net" modified="2020-06-18T00:42:27.035Z" agent="5.0 (Windows NT 10.0; Win64; x64) AppleWebKit/537.36 (KHTML, like Gecko) Chrome/83.0.4103.97 Safari/537.36 Edg/83.0.478.45" etag="LTsK_P7D-raDzF39JXwR" version="13.2.6" type="github">
  <diagram id="cBCA9zAfeKpI5ZKPDVPD" name="Page-1">
    <mxGraphModel dx="796" dy="569" grid="1" gridSize="10" guides="1" tooltips="1" connect="1" arrows="1" fold="1" page="1" pageScale="1" pageWidth="850" pageHeight="1100" math="0" shadow="0">
      <root>
        <mxCell id="0" />
        <mxCell id="1" parent="0" />
        <mxCell id="ci4gH501nWpb8Ug6YYF2-1" value="Movies" style="whiteSpace=wrap;html=1;aspect=fixed;" vertex="1" parent="1">
          <mxGeometry x="100" y="200" width="80" height="80" as="geometry" />
        </mxCell>
        <mxCell id="ci4gH501nWpb8Ug6YYF2-4" style="edgeStyle=orthogonalEdgeStyle;rounded=0;orthogonalLoop=1;jettySize=auto;html=1;entryX=1;entryY=0.5;entryDx=0;entryDy=0;" edge="1" parent="1" source="ci4gH501nWpb8Ug6YYF2-2" target="ci4gH501nWpb8Ug6YYF2-1">
          <mxGeometry relative="1" as="geometry" />
        </mxCell>
        <mxCell id="ci4gH501nWpb8Ug6YYF2-2" value="Relation" style="rhombus;whiteSpace=wrap;html=1;" vertex="1" parent="1">
          <mxGeometry x="230" y="220" width="190" height="80" as="geometry" />
        </mxCell>
      </root>
    </mxGraphModel>
  </diagram>
</mxfile>
